<?xml version="1.0" encoding="UTF-8"?>
<svg width="286px" height="280px" viewBox="0 0 286 280" version="1.1" xmlns="http://www.w3.org/2000/svg" xmlns:xlink="http://www.w3.org/1999/xlink">
    <!-- Generator: Sketch 64 (93537) - https://sketch.com -->
    <title>Artboard Copy</title>
    <desc>Created with Sketch.</desc>
    <g id="Artboard-Copy" stroke="none" stroke-width="1" fill="none" fill-rule="evenodd">
        <g id="logo">
            <path d="M81,10.3613584 L81,200 C81,201.104569 80.1045695,202 79,202 L2.95678233,202 C1.85221283,202 0.956782332,201.104569 0.956782332,200 C0.956782332,199.744987 1.005552,199.492327 1.1004634,199.255634 L77.1436811,9.6169929 C77.5547828,8.59177626 78.7191489,8.09393775 79.7443655,8.50503948 C80.5028453,8.80918235 81,9.54417152 81,10.3613584 Z" id="Triangle" fill="#1B85CE" opacity="0.9"></path>
            <path d="M119,10.3613584 L119,200 C119,201.104569 118.104569,202 117,202 L40.9567823,202 C39.8522128,202 38.9567823,201.104569 38.9567823,200 C38.9567823,199.744987 39.005552,199.492327 39.1004634,199.255634 L115.143681,9.6169929 C115.554783,8.59177626 116.719149,8.09393775 117.744366,8.50503948 C118.502845,8.80918235 119,9.54417152 119,10.3613584 Z" id="Triangle" fill="#FBE10D" opacity="0.9"></path>
            <path d="M157,10.3613584 L157,200 C157,201.104569 156.104569,202 155,202 L78.9567823,202 C77.8522128,202 76.9567823,201.104569 76.9567823,200 C76.9567823,199.744987 77.005552,199.492327 77.1004634,199.255634 L153.143681,9.6169929 C153.554783,8.59177626 154.719149,8.09393775 155.744366,8.50503948 C156.502845,8.80918235 157,9.54417152 157,10.3613584 Z" id="Triangle" fill="#EC3C38" opacity="0.9"></path>
            <path d="M195,10.3613584 L195,200 C195,201.104569 194.104569,202 193,202 L116.956782,202 C115.852213,202 114.956782,201.104569 114.956782,200 C114.956782,199.744987 115.005552,199.492327 115.100463,199.255634 L191.143681,9.6169929 C191.554783,8.59177626 192.719149,8.09393775 193.744366,8.50503948 C194.502845,8.80918235 195,9.54417152 195,10.3613584 Z" id="Triangle" fill="#4E3E81" opacity="0.9"></path>
            <path d="M208.721603,71.2945628 L284.215705,198.982118 C284.777866,199.932933 284.462799,201.159442 283.511984,201.721603 C283.203732,201.903854 282.852201,202 282.494102,202 L207,202 C205.895431,202 205,201.104569 205,200 L205,72.3124448 C205,71.2078753 205.895431,70.3124448 207,70.3124448 C207.707137,70.3124448 208.361712,70.6858582 208.721603,71.2945628 Z" id="Triangle" fill="#DCDCDC" opacity="0.9"></path>
            <text id="POLIMI-SAILING-TEAM" font-family="BrandonGrotesque-Bold, Brandon Grotesque" font-size="30" font-weight="bold" line-spacing="34" letter-spacing="3.34448175">
                <tspan x="163.19689" y="244" fill="#000000">POLI</tspan>
                <tspan x="242.874817" y="244" fill="#EC3C38">MI </tspan>
                <tspan x="45" y="278" fill="#000000">SAILING TEAM</tspan>
            </text>
        </g>
    </g>
</svg>